Description

Poster: http://cdn.piczend.com/image/fgleortt2wq3jhvch7dibxtma.jpeg
Release date: 2013
Genre: Crime, Drama, Thriller
Plot: A young woman's world unravels when a drug prescribed by her psychiatrist has unexpected side effects.
--------------------------------

Runtime: 1 h 46 min
Rating: 7.5/10
Votes: 5,135
Writer(s)/Director(s): Scott Z. Burns/Steven Soderbergh
Actors: Rooney Mara, Channing Tatum, Jude Law, Catherine Zeta-Jones
Trailer: http://www.imdb.com/video/imdb/vi2365630233/

Screenshots:
 
http://cdn.piczend.com/image/sujmlwm9iccvbdpfcuztw6onw.jpeg
 
http://cdn.piczend.com/image/xalz0zil8vxv7w3zyob1ugupw.jpeg
 
http://cdn.piczend.com/image/obtspfqgqf7geifz50wstmgyo.jpeg
 
http://cdn.piczend.com/image/ytktzhx00pf5wlm1it6ryvnoi.jpeg


Mediainfo:
General
Complete name : 	Side Effects (2013) CAM 404p [Zend]/Side Effects (2013) CAM 404p [Zend].mp4
Format : 	MPEG-4
Format profile : 	Base Media
Codec ID : 	isom
File size : 	1.06 GiB
Duration : 	1h 34mn
Overall bit rate mode : 	Variable
Overall bit rate : 	1 607 Kbps
Writing application : 	Lavf53.21.1

Video
ID : 	1
Format : 	AVC
Format/Info : 	Advanced Video Codec
Format profile : 	Main@L3.0
Format settings, CABAC : 	Yes
Format settings, ReFrames : 	3 frames
Codec ID : 	avc1
Codec ID/Info : 	Advanced Video Coding
Duration : 	1h 34mn
Bit rate : 	1 500 Kbps
Width : 	720 pixels
Height : 	404 pixels
Display aspect ratio : 	16:9
Frame rate mode : 	Constant
Frame rate : 	29.970 fps
Color space : 	YUV
Chroma subsampling : 	4:2:0
Bit depth : 	8 bits
Scan type : 	Progressive
Bits/(Pixel*Frame) : 	0.172
Stream size : 	1 020 MiB (94%)
Writing library : 	x264 core 123 r2189 35cf912
Encoding settings : 	cabac=1 / ref=3 / deblock=1:0:0 / analyse=0x1:0x111 / me=hex / subme=7 / psy=1 / psy_rd=1.00:0.00 / mixed_ref=0 / me_range=16 / chroma_me=1 / trellis=1 / 8x8dct=0 / cqm=0 / deadzone=21,11 / fast_pskip=1 / chroma_qp_offset=-2 / threads=6 / sliced_threads=0 / nr=0 / decimate=1 / interlaced=0 / bluray_compat=0 / constrained_intra=0 / bframes=3 / b_pyramid=0 / b_adapt=1 / b_bias=0 / direct=1 / weightb=0 / open_gop=1 / weightp=2 / keyint=250 / keyint_min=25 / scenecut=40 / intra_refresh=0 / rc_lookahead=40 / rc=abr / mbtree=1 / bitrate=1500 / ratetol=1.0 / qcomp=0.60 / qpmin=0 / qpmax=69 / qpstep=4 / ip_ratio=1.25 / aq=1:1.00

Audio
ID : 	2
Format : 	AAC
Format/Info : 	Advanced Audio Codec
Format profile : 	LC
Codec ID : 	40
Duration : 	1h 34mn
Bit rate mode : 	Variable
Bit rate : 	96.0 Kbps
Channel(s) : 	2 channels
Channel positions : 	Front: L R
Sampling rate : 	48.0 KHz
Compression mode : 	Lossy
Delay relative to video : 	33ms
Stream size : 	65.1 MiB (6%)
